# xmcd
#
# Track frame offsets: 
#        150
#        34539
#        57968
#        77042
#        102015
#        126899
#        143373
#        158874
#        178238
#        197393
#        222786
#        241862
#
# Disc length: 3550 seconds
#
# Revision: 5
# Processed by: cddbd v1.5.2PL0 Copyright (c) Steve Scherf et al.
# Submitted via: ExactAudioCopyFreeDBPlugin 1.0
#
DISCID=940ddc0c
DTITLE=YES - The Radio Album (BBC Live 1969-70)
DYEAR=1970
DGENRE=Progressive Rock
TTITLE0=Something's Coming
TTITLE1=Each And Everyday
TTITLE2=Sweetness
TTITLE3=Dear Father
TTITLE4=Every Litle Thing
TTITLE5=Looking Around
TTITLE6=Sweet Dreams
TTITLE7=Then
TTITLE8=No Opportunity Necessary, No Experience Needed
TTITLE9=Astral Traveller
TTITLE10=For Everyone
TTITLE11=Beyond And Before
EXTD=
EXTT0=
EXTT1=
EXTT2=
EXTT3=
EXTT4=
EXTT5=
EXTT6=
EXTT7=
EXTT8=
EXTT9=
EXTT10=
EXTT11=
PLAYORDER=
